<?xml version="1.0" encoding="utf-8"?>
<!-- Generator: Adobe Illustrator 26.0.1, SVG Export Plug-In . SVG Version: 6.00 Build 0)  -->
<svg version="1.1" id="Layer_1" xmlns="http://www.w3.org/2000/svg" xmlns:xlink="http://www.w3.org/1999/xlink" x="0px" y="0px"
	 viewBox="0 0 64 64" style="enable-background:new 0 0 64 64;" xml:space="preserve">
<style type="text/css">
	.st0{fill-rule:evenodd;clip-rule:evenodd;fill:url(#SVGID_1_);}
	.st1{fill:url(#SVGID_00000099628883594601933680000000867108114986176161_);}
</style>
<radialGradient id="SVGID_1_" cx="32.0008" cy="32.0011" r="23.6376" fx="31.9479" fy="32.0012" gradientTransform="matrix(1 0 0 1.0136 0 -0.4356)" gradientUnits="userSpaceOnUse">
	<stop  offset="0.2836" style="stop-color:#2AFF97"/>
	<stop  offset="0.6565" style="stop-color:#2ACCFF"/>
	<stop  offset="1" style="stop-color:#004555"/>
</radialGradient>
<path class="st0" d="M48.7,14.9c-3.9-3.9-9-6.6-14.5-6.9s-10.8,1.2-15.1,4.2c-4.8,3-7.8,7.5-9.6,13C7.7,30.3,8,36,10.1,41.2
	c2.1,5.1,5.7,9.3,10.5,12.1c4.8,2.7,10.3,3.3,15.7,2.4c5.7-0.9,10.6-3.9,13.9-8.1c3.3-4.5,5.4-9.7,5.4-15.1
	C55.7,25.5,53.2,19.8,48.7,14.9z M29,11.8c1.6-0.2,3.1-0.2,4.7-0.1c4.8,0.3,8.8,2.4,12.7,5.7c1.5,1.6,2.8,3.5,3.7,5.6
	c-3.3-1.9-7.7-4-13-5.9c-3.9-1.2-8.1-0.9-11.8,0.9C26,16.6,27,14.3,29,11.8z M35.8,21c6,2.1,9.6,8.7,7.5,14.8
	c-2.1,6-8.8,9.7-14.8,7.5c-6.3-2.1-9.7-8.7-7.5-14.8C23.1,22.5,29.7,18.8,35.8,21z M12.5,26.4c1.5-4.8,4.5-8.7,8.1-11.5
	c0.7-0.6,1.5-1,2.4-1.4c-2,3.4-4.2,8-6,13.8c-1.2,3.9-0.9,8.1,0.9,11.8c-1.3-0.8-3.6-2-6.3-3.7C11.2,32.3,11.6,29.3,12.5,26.4z
	 M22.5,50.5c-3.9-2.2-6.8-5.3-8.9-9.3c3.4,1.9,7.9,4,13.4,6c3.9,1.2,8.1,0.9,11.8-0.9C38,47.6,36.9,50,35,52.6
	C30.8,53.4,26.4,52.5,22.5,50.5z M47.8,45.1c-2.1,2.5-4.5,4.4-7.1,5.7c2-3.4,4.2-8.1,6.2-13.8c1.2-3.9,0.9-8.1-0.9-11.8
	c1.4,0.7,3.4,1.8,5.7,3.3c0.2,1.2,0.3,2.4,0.3,3.7C52.3,37,50.5,41.2,47.8,45.1z"/>
<radialGradient id="SVGID_00000007404549795249247210000010013419987838442378_" cx="32.1364" cy="31.9736" r="6.6352" gradientUnits="userSpaceOnUse">
	<stop  offset="0.5153" style="stop-color:#00F68D"/>
	<stop  offset="1" style="stop-color:#00DFE9"/>
</radialGradient>
<path style="fill:url(#SVGID_00000007404549795249247210000010013419987838442378_);" d="M32.1,25.3c-3.6,0-6.6,3-6.6,6.6
	s3,6.6,6.6,6.6c3.6,0,6.6-3,6.6-6.6S35.8,25.3,32.1,25.3 M32.1,35.3c-1.8,0-3.3-1.5-3.3-3.3c0-1.8,1.5-3.3,3.3-3.3
	c1.8,0,3.3,1.5,3.3,3.3S33.9,35.3,32.1,35.3"/>
</svg>
