<svg xmlns="http://www.w3.org/2000/svg" xmlns:xlink="http://www.w3.org/1999/xlink" viewBox="0 0 256 64"><defs><style>.cls-1{fill:#a9dedd;opacity:0.25;}.cls-2{fill-rule:evenodd;fill:url(#radial-gradient);}.cls-3{fill:url(#radial-gradient-2);}.cls-4{font-size:24.59px;fill:#2bafcf;}.cls-4,.cls-5{font-family:SegoeUI-Bold, Segoe UI;font-weight:700;}.cls-5{font-size:19px;fill:#32ada2;}.cls-6{letter-spacing:-0.02em;}</style><radialGradient id="radial-gradient" cx="31.96" cy="38.84" r="23.69" gradientTransform="matrix(1, 0, 0, -1.01, 0, 71.4)" gradientUnits="userSpaceOnUse"><stop offset="0.28" stop-color="#2aff97"/><stop offset="0.66" stop-color="#2accff"/><stop offset="1" stop-color="#004555"/></radialGradient><radialGradient id="radial-gradient-2" cx="32.14" cy="34.03" r="6.64" gradientTransform="matrix(1, 0, 0, -1, 0, 66)" gradientUnits="userSpaceOnUse"><stop offset="0.52" stop-color="#00f68d"/><stop offset="1" stop-color="#00dfe9"/></radialGradient></defs><g id="Layer_2" data-name="Layer 2"><g id="Layer_1-2" data-name="Layer 1"><rect class="cls-1" width="256" height="64" rx="32"/><path class="cls-2" d="M48.7,14.9A22.56,22.56,0,0,0,34.2,8a24,24,0,0,0-15.1,4.2c-4.8,3-7.8,7.5-9.6,13a22.67,22.67,0,0,0,.6,16A24.79,24.79,0,0,0,20.6,53.3a23.72,23.72,0,0,0,15.7,2.4,22,22,0,0,0,13.9-8.1,25.77,25.77,0,0,0,5.4-15.1A24.54,24.54,0,0,0,48.7,14.9ZM29,11.8a24.62,24.62,0,0,1,4.7-.1c4.8.3,8.8,2.4,12.7,5.7A19.49,19.49,0,0,1,50.1,23a81.6,81.6,0,0,0-13-5.9,16.09,16.09,0,0,0-11.8.9A30.67,30.67,0,0,1,29,11.8ZM35.8,21c6,2.1,9.6,8.7,7.5,14.8s-8.8,9.7-14.8,7.5A11.53,11.53,0,0,1,21,28.5C23.1,22.5,29.7,18.8,35.8,21ZM12.5,26.4a23.52,23.52,0,0,1,8.1-11.5A9.46,9.46,0,0,1,23,13.5a65.67,65.67,0,0,0-6,13.8,16.09,16.09,0,0,0,.9,11.8c-1.3-.8-3.6-2-6.3-3.7A21,21,0,0,1,12.5,26.4Zm10,24.1a22.18,22.18,0,0,1-8.9-9.3,92.9,92.9,0,0,0,13.4,6,16.09,16.09,0,0,0,11.8-.9A64.8,64.8,0,0,1,35,52.6,19.58,19.58,0,0,1,22.5,50.5Zm25.3-5.4a22.34,22.34,0,0,1-7.1,5.7A80.25,80.25,0,0,0,46.9,37,16.09,16.09,0,0,0,46,25.2a58.86,58.86,0,0,1,5.7,3.3,22.18,22.18,0,0,1,.3,3.7C52.3,37,50.5,41.2,47.8,45.1Z"/><path class="cls-3" d="M32.1,25.3a6.6,6.6,0,1,0,6.6,6.6,6.66,6.66,0,0,0-6.6-6.6m0,10A3.3,3.3,0,1,1,35.4,32a3.33,3.33,0,0,1-3.3,3.3"/><text class="cls-4" transform="translate(63.99 48.4) scale(0.94 1)">Documentation</text><text class="cls-5" transform="translate(64.28 25.3)"><tspan class="cls-6">R</tspan><tspan x="11.93" y="0">ead</tspan></text></g></g></svg>